<svg width="93" height="42" viewBox="0 0 93 42" fill="none" xmlns="http://www.w3.org/2000/svg">
<path d="M83.25 21.4004C83.1769 21.4002 83.1043 21.4109 83.0344 21.4323L68.0344 25.9323C67.8799 25.9786 67.7446 26.0735 67.6483 26.2029C67.5521 26.3322 67.5 26.4892 67.5 26.6504V28.9004C67.5 29.0993 67.579 29.2901 67.7197 29.4307C67.8603 29.5714 68.0511 29.6504 68.25 29.6504H69C69.3923 29.6522 69.7684 29.8069 70.0484 30.0815C70.3285 30.3562 70.4905 30.7292 70.5 31.1213C70.5034 31.3178 70.4671 31.513 70.3933 31.6952C70.3195 31.8774 70.2098 32.0428 70.0706 32.1816C69.9238 32.3311 69.7488 32.45 69.5556 32.5313C69.3625 32.6125 69.1552 32.6546 68.9456 32.6551H68.25C68.0511 32.6551 67.8603 32.7341 67.7197 32.8747C67.579 33.0154 67.5 33.2062 67.5 33.4051V36.4051C67.5 36.604 67.579 36.7948 67.7197 36.9354C67.8603 37.0761 68.0511 37.1551 68.25 37.1551H87C87.3978 37.1551 87.7794 36.997 88.0607 36.7157C88.342 36.4344 88.5 36.0529 88.5 35.6551V26.6504C88.4985 25.2585 87.9449 23.924 86.9607 22.9397C85.9764 21.9555 84.6419 21.4019 83.25 21.4004ZM83.355 22.9004C84.2009 22.9252 85.0136 23.235 85.6614 23.7795C86.3092 24.324 86.7542 25.0714 86.9241 25.9004H73.3603L83.355 22.9004ZM84 28.1504C84.0003 28.4782 83.9289 28.8022 83.7909 29.0996C83.6529 29.3969 83.4515 29.6606 83.201 29.872C82.9504 30.0834 82.6567 30.2375 82.3403 30.3235C82.0239 30.4096 81.6926 30.4254 81.3695 30.3699C81.0463 30.3145 80.7392 30.1891 80.4696 30.0025C80.2001 29.816 79.9745 29.5728 79.8087 29.2899C79.643 29.007 79.5411 28.6914 79.5101 28.365C79.4791 28.0386 79.5198 27.7094 79.6294 27.4004H83.8706C83.9563 27.6412 84 27.8948 84 28.1504ZM74.25 35.6504C74.25 35.0537 74.4871 34.4814 74.909 34.0594C75.331 33.6374 75.9033 33.4004 76.5 33.4004C77.0967 33.4004 77.669 33.6374 78.091 34.0594C78.5129 34.4814 78.75 35.0537 78.75 35.6504H74.25ZM87 35.6504H80.25C80.25 34.6558 79.8549 33.702 79.1516 32.9987C78.4484 32.2955 77.4946 31.9004 76.5 31.9004C75.5054 31.9004 74.5516 32.2955 73.8484 32.9987C73.1451 33.702 72.75 34.6558 72.75 35.6504H69V34.1504C69.8069 34.1336 70.5753 33.8023 71.1413 33.227C71.4204 32.9471 71.6404 32.6138 71.7879 32.247C71.9354 31.8803 72.0076 31.4875 72 31.0923C71.9812 30.3079 71.6573 29.5618 71.0971 29.0124C70.5369 28.4631 69.7846 28.1538 69 28.1504V27.4004H78.0759C77.9646 27.9453 77.9758 28.5081 78.1088 29.0481C78.2418 29.5881 78.4933 30.0918 78.845 30.5226C79.1967 30.9534 79.6398 31.3006 80.1422 31.5391C80.6447 31.7775 81.1939 31.9012 81.75 31.9012C82.3061 31.9012 82.8553 31.7775 83.3578 31.5391C83.8602 31.3006 84.3033 30.9534 84.655 30.5226C85.0067 30.0918 85.2582 29.5881 85.3912 29.0481C85.5242 28.5081 85.5354 27.9453 85.4241 27.4004H87V35.6504Z" fill="black"/>
<path d="M23.6552 19.6035C22.3011 19.6035 21.1432 19.2887 20.1818 18.659C19.2203 18.0225 18.5297 17.1118 18.1099 15.927C17.6901 14.7421 17.6156 13.3236 17.8865 11.6715C18.1573 10.06 18.6787 8.68893 19.4505 7.5582C20.2292 6.42747 21.1771 5.56419 22.2943 4.96836C23.4182 4.36576 24.6268 4.06445 25.9201 4.06445C26.78 4.06445 27.5586 4.18294 28.256 4.41992C28.9602 4.6569 29.5628 5.0056 30.0638 5.46602C30.5649 5.91966 30.9474 6.47826 31.2115 7.1418C31.4755 7.79857 31.5974 8.54674 31.5771 9.38633H28.8552C28.8552 8.92591 28.7807 8.51966 28.6318 8.16758C28.4896 7.81549 28.2831 7.51758 28.0123 7.27383C27.7482 7.03008 27.4333 6.84388 27.0677 6.71523C26.7089 6.58659 26.3094 6.52227 25.8693 6.52227C25.0162 6.52227 24.224 6.73555 23.4927 7.16211C22.7615 7.58867 22.1419 8.21159 21.6341 9.03086C21.1263 9.84336 20.7776 10.8319 20.588 11.9965C20.3985 13.1272 20.4154 14.0751 20.6388 14.8402C20.8623 15.6053 21.2448 16.1809 21.7865 16.5668C22.3349 16.9527 23.0018 17.1457 23.7873 17.1457C24.2612 17.1457 24.7149 17.0848 25.1482 16.9629C25.5883 16.841 25.9945 16.6616 26.3669 16.4246C26.7393 16.1876 27.0643 15.8999 27.3419 15.5613C27.6263 15.216 27.8498 14.8199 28.0123 14.373H30.7646C30.5412 15.0975 30.2094 15.778 29.7693 16.4145C29.3292 17.0441 28.8011 17.5993 28.1849 18.0801C27.5688 18.554 26.8781 18.9264 26.113 19.1973C25.3547 19.4681 24.5354 19.6035 23.6552 19.6035Z" fill="black"/>
<path d="M35.3349 12.7582L34.2482 19.4004H31.5669L34.0755 4.26758H36.6857L35.7513 9.98555H35.8935C36.2524 9.34232 36.7399 8.8345 37.356 8.46211C37.9789 8.08971 38.7305 7.90352 39.6107 7.90352C40.3893 7.90352 41.0427 8.0694 41.5709 8.40117C42.1057 8.73294 42.4815 9.21706 42.6982 9.85352C42.9216 10.49 42.9589 11.2652 42.8099 12.1793L41.6013 19.4004H38.9201L40.0474 12.5957C40.1761 11.8238 40.0779 11.228 39.7529 10.8082C39.4279 10.3816 38.9201 10.1684 38.2294 10.1684C37.7555 10.1684 37.3154 10.2699 36.9091 10.473C36.5097 10.6762 36.1711 10.9707 35.8935 11.3566C35.6227 11.7358 35.4365 12.203 35.3349 12.7582Z" fill="black"/>
<path d="M48.7412 19.6238C47.5901 19.6238 46.6287 19.3835 45.8568 18.9027C45.0849 18.4152 44.5399 17.7314 44.2216 16.8512C43.9034 15.9642 43.8391 14.9215 44.0287 13.723C44.225 12.5652 44.6042 11.553 45.1662 10.6863C45.7281 9.81289 46.4357 9.13242 47.2888 8.64492C48.1487 8.15065 49.1136 7.90352 50.1833 7.90352C50.8875 7.90352 51.5409 8.01862 52.1435 8.24883C52.7529 8.47904 53.2675 8.83112 53.6873 9.30508C54.1138 9.77227 54.4117 10.3681 54.581 11.0926C54.757 11.8171 54.7638 12.677 54.6013 13.6723L54.4693 14.4645H45.156L45.4607 12.6668H53.4435L52.1029 13.1543C52.2112 12.5178 52.2146 11.9626 52.113 11.4887C52.0182 11.0147 51.8117 10.6457 51.4935 10.3816C51.182 10.1176 50.7419 9.98555 50.1732 9.98555C49.5909 9.98555 49.0594 10.1243 48.5787 10.402C48.1047 10.6796 47.712 11.0486 47.4005 11.509C47.0891 11.9694 46.886 12.4806 46.7912 13.0426L46.588 14.2918C46.4729 14.9892 46.4831 15.5816 46.6185 16.0691C46.7539 16.5499 47.0112 16.9155 47.3904 17.166C47.7695 17.4165 48.257 17.5418 48.8529 17.5418C49.2591 17.5418 49.6349 17.4842 49.9802 17.3691C50.3255 17.254 50.6336 17.0848 50.9044 16.8613C51.1753 16.6379 51.3953 16.3637 51.5646 16.0387L54.0326 16.3941C53.7617 17.0509 53.3758 17.623 52.8748 18.1105C52.3805 18.5913 51.7847 18.9637 51.0873 19.2277C50.3899 19.4918 49.6078 19.6238 48.7412 19.6238Z" fill="black"/>
<path d="M60.2787 19.6238C59.1276 19.6238 58.1662 19.3835 57.3943 18.9027C56.6224 18.4152 56.0774 17.7314 55.7591 16.8512C55.4409 15.9642 55.3766 14.9215 55.5662 13.723C55.7625 12.5652 56.1417 11.553 56.7037 10.6863C57.2656 9.81289 57.9732 9.13242 58.8263 8.64492C59.6862 8.15065 60.6511 7.90352 61.7208 7.90352C62.425 7.90352 63.0784 8.01862 63.681 8.24883C64.2904 8.47904 64.805 8.83112 65.2248 9.30508C65.6513 9.77227 65.9492 10.3681 66.1185 11.0926C66.2945 11.8171 66.3013 12.677 66.1388 13.6723L66.0068 14.4645H56.6935L56.9982 12.6668H64.981L63.6404 13.1543C63.7487 12.5178 63.7521 11.9626 63.6505 11.4887C63.5557 11.0147 63.3492 10.6457 63.031 10.3816C62.7195 10.1176 62.2794 9.98555 61.7107 9.98555C61.1284 9.98555 60.5969 10.1243 60.1162 10.402C59.6422 10.6796 59.2495 11.0486 58.938 11.509C58.6266 11.9694 58.4235 12.4806 58.3287 13.0426L58.1255 14.2918C58.0104 14.9892 58.0206 15.5816 58.156 16.0691C58.2914 16.5499 58.5487 16.9155 58.9279 17.166C59.307 17.4165 59.7945 17.5418 60.3904 17.5418C60.7966 17.5418 61.1724 17.4842 61.5177 17.3691C61.863 17.254 62.1711 17.0848 62.4419 16.8613C62.7128 16.6379 62.9328 16.3637 63.1021 16.0387L65.5701 16.3941C65.2992 17.0509 64.9133 17.623 64.4123 18.1105C63.918 18.5913 63.3222 18.9637 62.6248 19.2277C61.9274 19.4918 61.1453 19.6238 60.2787 19.6238Z" fill="black"/>
<path d="M76.9857 11.0621L74.538 11.316C74.5109 11.0655 74.4297 10.8319 74.2943 10.6152C74.1656 10.3986 73.9761 10.2259 73.7255 10.0973C73.475 9.96185 73.1466 9.89414 72.7404 9.89414C72.1716 9.90091 71.6672 10.0363 71.2271 10.3004C70.787 10.5577 70.5365 10.8895 70.4755 11.2957C70.4214 11.6004 70.4958 11.8509 70.699 12.0473C70.9021 12.2368 71.2779 12.3993 71.8263 12.5348L73.6951 12.941C74.731 13.1712 75.4758 13.547 75.9294 14.0684C76.3899 14.5897 76.5524 15.2634 76.4169 16.0895C76.2951 16.7936 75.987 17.4098 75.4927 17.9379C74.9985 18.466 74.3688 18.879 73.6037 19.177C72.8386 19.4749 71.9888 19.6238 71.0544 19.6238C69.6461 19.6238 68.5594 19.3293 67.7943 18.7402C67.036 18.1512 66.6602 17.3387 66.6669 16.3027L69.2974 16.059C69.3313 16.5668 69.5107 16.9493 69.8357 17.2066C70.1675 17.4639 70.6245 17.596 71.2068 17.6027C71.8703 17.6095 72.4289 17.4707 72.8826 17.1863C73.3362 16.902 73.5935 16.5566 73.6544 16.1504C73.7086 15.8457 73.6341 15.5986 73.431 15.409C73.2346 15.2126 72.8792 15.0569 72.3646 14.9418L70.506 14.5355C69.4498 14.3053 68.6982 13.9126 68.2513 13.3574C67.8112 12.8022 67.6623 12.1014 67.8044 11.2551C67.9263 10.5712 68.2141 9.97878 68.6677 9.47773C69.1281 8.97669 69.7172 8.59075 70.4349 8.31992C71.1594 8.04232 71.9719 7.90352 72.8724 7.90352C74.2266 7.90352 75.2456 8.18789 75.9294 8.75664C76.6133 9.32539 76.9654 10.0939 76.9857 11.0621Z" fill="black"/>
<path d="M82.4599 19.6238C81.3089 19.6238 80.3474 19.3835 79.5755 18.9027C78.8037 18.4152 78.2586 17.7314 77.9404 16.8512C77.6221 15.9642 77.5578 14.9215 77.7474 13.723C77.9438 12.5652 78.3229 11.553 78.8849 10.6863C79.4469 9.81289 80.1544 9.13242 81.0076 8.64492C81.8675 8.15065 82.8323 7.90352 83.9021 7.90352C84.6063 7.90352 85.2596 8.01862 85.8623 8.24883C86.4716 8.47904 86.9862 8.83112 87.406 9.30508C87.8326 9.77227 88.1305 10.3681 88.2998 11.0926C88.4758 11.8171 88.4826 12.677 88.3201 13.6723L88.188 14.4645H78.8747L79.1794 12.6668H87.1623L85.8216 13.1543C85.93 12.5178 85.9333 11.9626 85.8318 11.4887C85.737 11.0147 85.5305 10.6457 85.2122 10.3816C84.9008 10.1176 84.4607 9.98555 83.8919 9.98555C83.3096 9.98555 82.7781 10.1243 82.2974 10.402C81.8235 10.6796 81.4307 11.0486 81.1193 11.509C80.8078 11.9694 80.6047 12.4806 80.5099 13.0426L80.3068 14.2918C80.1917 14.9892 80.2018 15.5816 80.3372 16.0691C80.4727 16.5499 80.73 16.9155 81.1091 17.166C81.4883 17.4165 81.9758 17.5418 82.5716 17.5418C82.9779 17.5418 83.3537 17.4842 83.699 17.3691C84.0443 17.254 84.3524 17.0848 84.6232 16.8613C84.894 16.6379 85.1141 16.3637 85.2833 16.0387L87.7513 16.3941C87.4805 17.0509 87.0945 17.623 86.5935 18.1105C86.0992 18.5913 85.5034 18.9637 84.806 19.2277C84.1086 19.4918 83.3266 19.6238 82.4599 19.6238Z" fill="black"/>
<path d="M4.52246 37L7.03105 21.8672H12.8404C13.9305 21.8672 14.8074 22.0398 15.4709 22.3852C16.1412 22.7305 16.6084 23.1977 16.8725 23.7867C17.1433 24.3758 17.2144 25.0427 17.0857 25.7875C16.9232 26.7083 16.5407 27.4328 15.9381 27.9609C15.3423 28.4891 14.6652 28.8411 13.9068 29.0172L13.8865 29.1695C14.4146 29.1898 14.8988 29.3523 15.3389 29.657C15.7857 29.9549 16.1209 30.3747 16.3443 30.9164C16.5745 31.4581 16.6287 32.1115 16.5068 32.8766C16.3714 33.662 16.06 34.3661 15.5725 34.9891C15.0917 35.6052 14.4383 36.0961 13.6123 36.4617C12.793 36.8206 11.8079 37 10.6568 37H4.52246ZM7.65059 34.7148H10.6061C11.5878 34.7148 12.3326 34.5219 12.8404 34.1359C13.3482 33.75 13.6529 33.2591 13.7545 32.6633C13.8222 32.2096 13.7748 31.8034 13.6123 31.4445C13.4566 31.0857 13.1925 30.8013 12.8201 30.5914C12.4477 30.3815 11.9771 30.2766 11.4084 30.2766H8.39199L7.65059 34.7148ZM8.72715 28.3062H11.4389C11.9128 28.3062 12.3529 28.2182 12.7592 28.0422C13.1654 27.8661 13.504 27.6156 13.7748 27.2906C14.0456 26.9656 14.2149 26.5865 14.2826 26.1531C14.3842 25.5641 14.2589 25.0833 13.9068 24.7109C13.5615 24.3318 12.986 24.1388 12.1803 24.132H9.39746L8.72715 28.3062Z" fill="black"/>
<path d="M20.549 37.2336C19.8313 37.2268 19.205 37.0948 18.6701 36.8375C18.142 36.5802 17.7527 36.1977 17.5021 35.6898C17.2516 35.1753 17.1839 34.549 17.299 33.8109C17.4074 33.1745 17.6139 32.6464 17.9186 32.2266C18.23 31.8068 18.6126 31.4716 19.0662 31.2211C19.5199 30.9706 20.0107 30.781 20.5389 30.6523C21.0738 30.5237 21.6222 30.4289 22.1842 30.368C22.8613 30.2935 23.4097 30.2292 23.8295 30.175C24.2493 30.1141 24.5641 30.026 24.774 29.9109C24.9907 29.7891 25.1227 29.5995 25.1701 29.3422V29.2914C25.2581 28.743 25.1667 28.3164 24.8959 28.0117C24.6318 27.707 24.1883 27.5547 23.5654 27.5547C22.9222 27.5547 22.3771 27.6969 21.9303 27.9812C21.4902 28.2656 21.1652 28.6008 20.9553 28.9867L18.5482 28.6313C18.8529 27.9406 19.2693 27.3651 19.7975 26.9047C20.3324 26.4375 20.9451 26.0888 21.6357 25.8586C22.3331 25.6216 23.0779 25.5031 23.8701 25.5031C24.4118 25.5031 24.9399 25.5674 25.4545 25.6961C25.9758 25.818 26.4363 26.0279 26.8357 26.3258C27.242 26.6237 27.5399 27.0232 27.7295 27.5242C27.9191 28.0253 27.9495 28.6516 27.8209 29.4031L26.5514 37H24.0021L24.2662 35.4359H24.1748C23.9581 35.7474 23.6805 36.0419 23.342 36.3195C23.0034 36.5904 22.6006 36.8104 22.1334 36.9797C21.673 37.1422 21.1449 37.2268 20.549 37.2336ZM21.5545 35.2633C22.0962 35.2633 22.5803 35.1583 23.0068 34.9484C23.4334 34.7318 23.7855 34.4474 24.0631 34.0953C24.3407 33.7365 24.5133 33.3471 24.5811 32.9273L24.7943 31.5969C24.6995 31.6646 24.5472 31.7289 24.3373 31.7898C24.1342 31.844 23.904 31.8948 23.6467 31.9422C23.3894 31.9828 23.1355 32.0201 22.885 32.0539C22.6412 32.0878 22.4313 32.1182 22.2553 32.1453C21.849 32.1995 21.4766 32.2909 21.1381 32.4195C20.8063 32.5414 20.5287 32.7107 20.3053 32.9273C20.0886 33.144 19.9532 33.425 19.899 33.7703C19.8178 34.2578 19.9329 34.6302 20.2443 34.8875C20.5626 35.138 20.9993 35.2633 21.5545 35.2633Z" fill="black"/>
<path d="M31.5381 33.4453L32.0561 30.2055H32.4928L37.3373 25.6453H40.4756L34.5342 31.2414H33.9857L31.5381 33.4453ZM28.5115 37L31.0303 21.8672H33.7014L31.1928 37H28.5115ZM35.6412 37L32.7975 31.8406L34.9201 29.9516L38.8404 37H35.6412Z" fill="black"/>
<path d="M44.274 37.2234C43.123 37.2234 42.1615 36.9831 41.3896 36.5023C40.6178 36.0148 40.0727 35.331 39.7545 34.4508C39.4363 33.5638 39.3719 32.5211 39.5615 31.3227C39.7579 30.1648 40.137 29.1526 40.699 28.2859C41.261 27.4125 41.9686 26.732 42.8217 26.2445C43.6816 25.7503 44.6464 25.5031 45.7162 25.5031C46.4204 25.5031 47.0738 25.6182 47.6764 25.8484C48.2857 26.0786 48.8003 26.4307 49.2201 26.9047C49.6467 27.3719 49.9446 27.9677 50.1139 28.6922C50.2899 29.4167 50.2967 30.2766 50.1342 31.2719L50.0021 32.0641H40.6889L40.9936 30.2664H48.9764L47.6357 30.7539C47.7441 30.1174 47.7475 29.5622 47.6459 29.0883C47.5511 28.6143 47.3446 28.2453 47.0264 27.9812C46.7149 27.7172 46.2748 27.5852 45.7061 27.5852C45.1238 27.5852 44.5923 27.724 44.1115 28.0016C43.6376 28.2792 43.2449 28.6482 42.9334 29.1086C42.6219 29.569 42.4188 30.0802 42.324 30.6422L42.1209 31.8914C42.0058 32.5888 42.016 33.1812 42.1514 33.6687C42.2868 34.1495 42.5441 34.5151 42.9232 34.7656C43.3024 35.0161 43.7899 35.1414 44.3857 35.1414C44.792 35.1414 45.1678 35.0839 45.5131 34.9688C45.8584 34.8536 46.1665 34.6844 46.4373 34.4609C46.7081 34.2375 46.9282 33.9633 47.0975 33.6383L49.5654 33.9937C49.2946 34.6505 48.9087 35.2227 48.4076 35.7102C47.9133 36.1909 47.3175 36.5633 46.6201 36.8273C45.9227 37.0914 45.1407 37.2234 44.274 37.2234Z" fill="black"/>
<path d="M60.9811 28.6617L58.5334 28.9156C58.5063 28.6651 58.4251 28.4315 58.2896 28.2148C58.161 27.9982 57.9714 27.8255 57.7209 27.6969C57.4704 27.5615 57.142 27.4937 56.7357 27.4937C56.167 27.5005 55.6626 27.6359 55.2225 27.9C54.7824 28.1573 54.5318 28.4891 54.4709 28.8953C54.4167 29.2 54.4912 29.4505 54.6943 29.6469C54.8975 29.8365 55.2732 29.999 55.8217 30.1344L57.6904 30.5406C58.7264 30.7708 59.4712 31.1466 59.9248 31.668C60.3852 32.1893 60.5477 32.863 60.4123 33.6891C60.2904 34.3932 59.9824 35.0094 59.4881 35.5375C58.9938 36.0656 58.3641 36.4786 57.599 36.7766C56.8339 37.0745 55.9842 37.2234 55.0498 37.2234C53.6415 37.2234 52.5548 36.9289 51.7896 36.3398C51.0313 35.7508 50.6555 34.9383 50.6623 33.9023L53.2928 33.6586C53.3266 34.1664 53.5061 34.549 53.8311 34.8062C54.1628 35.0635 54.6199 35.1956 55.2021 35.2023C55.8657 35.2091 56.4243 35.0703 56.8779 34.7859C57.3316 34.5016 57.5889 34.1562 57.6498 33.75C57.704 33.4453 57.6295 33.1982 57.4264 33.0086C57.23 32.8122 56.8745 32.6565 56.36 32.5414L54.5014 32.1352C53.4451 31.9049 52.6936 31.5122 52.2467 30.957C51.8066 30.4018 51.6576 29.701 51.7998 28.8547C51.9217 28.1708 52.2094 27.5784 52.6631 27.0773C53.1235 26.5763 53.7126 26.1904 54.4303 25.9195C55.1548 25.6419 55.9673 25.5031 56.8678 25.5031C58.2219 25.5031 59.2409 25.7875 59.9248 26.3563C60.6087 26.925 60.9607 27.6935 60.9811 28.6617Z" fill="black"/>
</svg>
