<svg width="25" height="25" viewBox="0 0 25 25" fill="none" xmlns="http://www.w3.org/2000/svg">
<path d="M21.1714 7.32422C20.9949 7.41564 20.7892 7.43322 20.5997 7.3731C20.4102 7.31298 20.2523 7.18007 20.1608 7.00359C19.4449 5.58936 18.3613 4.39406 17.0239 3.54328C16.9406 3.49071 16.8684 3.42224 16.8115 3.34177C16.7546 3.26131 16.7141 3.17043 16.6924 3.07432C16.6706 2.97821 16.668 2.87876 16.6846 2.78164C16.7013 2.68451 16.737 2.59163 16.7895 2.50828C16.8421 2.42493 16.9106 2.35275 16.991 2.29587C17.0715 2.23898 17.1624 2.1985 17.2585 2.17674C17.3546 2.15497 17.4541 2.15235 17.5512 2.16902C17.6483 2.1857 17.7412 2.22133 17.8245 2.2739C19.3832 3.27191 20.6489 4.66599 21.492 6.31359C21.5835 6.49014 21.601 6.69576 21.5409 6.88527C21.4808 7.07478 21.3479 7.23266 21.1714 7.32422ZM3.51922 7.40859C3.65662 7.40853 3.79137 7.37073 3.90875 7.29931C4.02613 7.22789 4.12164 7.12559 4.18484 7.00359C4.90072 5.58936 5.9843 4.39406 7.32172 3.54328C7.49005 3.43711 7.60931 3.26842 7.65326 3.07432C7.69721 2.88022 7.66226 2.67661 7.55609 2.50828C7.44992 2.33995 7.28123 2.22069 7.08713 2.17674C6.89303 2.13278 6.68942 2.16773 6.52109 2.2739C4.96241 3.27191 3.69676 4.66599 2.85359 6.31359C2.79438 6.42789 2.76558 6.55551 2.76997 6.68416C2.77436 6.81281 2.81178 6.93817 2.87865 7.04817C2.94552 7.15817 3.03957 7.2491 3.15176 7.31223C3.26394 7.37535 3.39049 7.40854 3.51922 7.40859ZM20.9661 17.153C21.099 17.3808 21.1694 17.6397 21.1703 17.9034C21.1712 18.1672 21.1026 18.4265 20.9713 18.6553C20.8399 18.8841 20.6506 19.0742 20.4224 19.2064C20.1942 19.3387 19.9352 19.4084 19.6714 19.4086H15.8464C15.6743 20.2563 15.2144 21.0184 14.5446 21.5659C13.8748 22.1133 13.0364 22.4124 12.1714 22.4124C11.3064 22.4124 10.468 22.1133 9.79821 21.5659C9.12845 21.0184 8.66854 20.2563 8.49641 19.4086H4.6714C4.4078 19.4081 4.14899 19.3381 3.92104 19.2057C3.69309 19.0733 3.50405 18.8832 3.37297 18.6545C3.24188 18.4258 3.17339 18.1666 3.17438 17.903C3.17536 17.6394 3.2458 17.3807 3.37859 17.153C4.22328 15.6952 4.6714 13.6223 4.6714 11.1586C4.6714 9.16947 5.46158 7.26181 6.8681 5.85529C8.27463 4.44877 10.1823 3.65859 12.1714 3.65859C14.1605 3.65859 16.0682 4.44877 17.4747 5.85529C18.8812 7.26181 19.6714 9.16947 19.6714 11.1586C19.6714 13.6214 20.1195 15.6942 20.9661 17.153ZM14.292 19.4086H10.0508C10.2062 19.8468 10.4935 20.2261 10.8732 20.4943C11.253 20.7626 11.7065 20.9066 12.1714 20.9066C12.6363 20.9066 13.0899 20.7626 13.4696 20.4943C13.8493 20.2261 14.1366 19.8468 14.292 19.4086ZM19.6714 17.9086C18.6739 16.1958 18.1714 13.9252 18.1714 11.1586C18.1714 9.56729 17.5393 8.04117 16.414 6.91595C15.2888 5.79073 13.7627 5.15859 12.1714 5.15859C10.5801 5.15859 9.05398 5.79073 7.92876 6.91595C6.80355 8.04117 6.1714 9.56729 6.1714 11.1586C6.1714 13.9261 5.66703 16.1967 4.6714 17.9086H19.6714Z" fill="black"/>
</svg>
