<svg width="25" height="25" viewBox="0 0 25 25" fill="none" xmlns="http://www.w3.org/2000/svg">
<path d="M21.4365 12.6582C21.4365 12.8571 21.3575 13.0479 21.2169 13.1885C21.0762 13.3292 20.8854 13.4082 20.6865 13.4082H13.1865V20.9082C13.1865 21.1071 13.1075 21.2979 12.9669 21.4385C12.8262 21.5792 12.6354 21.6582 12.4365 21.6582C12.2376 21.6582 12.0468 21.5792 11.9062 21.4385C11.7655 21.2979 11.6865 21.1071 11.6865 20.9082V13.4082H4.18652C3.98761 13.4082 3.79685 13.3292 3.65619 13.1885C3.51554 13.0479 3.43652 12.8571 3.43652 12.6582C3.43652 12.4593 3.51554 12.2685 3.65619 12.1279C3.79685 11.9872 3.98761 11.9082 4.18652 11.9082H11.6865V4.4082C11.6865 4.20929 11.7655 4.01853 11.9062 3.87787C12.0468 3.73722 12.2376 3.6582 12.4365 3.6582C12.6354 3.6582 12.8262 3.73722 12.9669 3.87787C13.1075 4.01853 13.1865 4.20929 13.1865 4.4082V11.9082H20.6865C20.8854 11.9082 21.0762 11.9872 21.2169 12.1279C21.3575 12.2685 21.4365 12.4593 21.4365 12.6582Z" fill="black"/>
</svg>
